<?xml version="1.0" ?><!DOCTYPE svg  PUBLIC '-//W3C//DTD SVG 1.1//EN'  'http://www.w3.org/Graphics/SVG/1.1/DTD/svg11.dtd'><svg enable-background="new 0 0 512 512" height="512px" id="Layer_1" version="1.1" viewBox="0 0 512 512" width="512px" xml:space="preserve" xmlns="http://www.w3.org/2000/svg" xmlns:xlink="http://www.w3.org/1999/xlink"><g id="targeting_1_"><path d="M416,267.5c0,106.031-85.969,192-192,192s-192-85.969-192-192s85.969-192,192-192S416,161.469,416,267.5z" fill="#ED5564"/><circle cx="224" cy="273.5" fill="#F5F7FA" r="128.5"/><path d="M284,267.5c0,33.406-27.094,60.5-60.5,60.5S163,300.906,163,267.5s27.094-60.5,60.5-60.5   S284,234.094,284,267.5z" fill="#ED5564"/><polygon fill="#434A54" points="100.672,420.672 100.672,501.344 172,459.5  "/><polygon fill="#434A54" points="341.953,418.984 268.672,445.344 307.328,486.016 348.672,498.672  "/><polygon fill="#F5F7FA" points="431,13 362,75.5 374,114 416,121 477,63  "/><path d="M378.453,127.25l36.75,8.484l75.406-75.406L468,37.703l7.516-7.516c1.938-1.938,3.141-4.609,3.141-7.562   c0-5.891-4.766-10.656-10.656-10.656c-2.953,0-5.625,1.188-7.547,3.125v-0.016l-7.547,7.547L430.297,0l-75.406,75.406l8.219,37.031   L359.531,116c-35.891-32.328-83.406-52.016-135.516-52.016c-111.906,0-202.625,90.719-202.625,202.625   c0,62.766,28.531,118.859,73.328,156.016c-9.438,37.719-17.812,89.375,7,89.375c18.719,0,50.125-23.344,77.766-47.688   c14.328,3.219,29.234,4.922,44.531,4.922c15.562,0,30.719-1.766,45.281-5.078C296.969,488.531,328.484,512,347.25,512   c24.953,0,16.328-52.25,6.828-90.031c44.344-37.188,72.547-92.969,72.547-155.359c0-52.109-19.672-99.641-52-135.531   L378.453,127.25z M460.453,60.328l-51.969,51.969l-12.25-2.828l56.672-56.688L460.453,60.328z M378.234,82.219l52.062-52.062   l7.531,7.547l-56.844,56.859L378.234,82.219z M107.062,489.328c-0.781-6.781-0.766-21.609,5.828-50.922   c0.156-0.688,0.312-1.359,0.469-2.031c12.953,8.438,26.922,15.469,41.688,20.812C128.766,479.188,114.109,486.75,107.062,489.328z    M336.016,438.094c6.641,29.5,6.672,44.422,5.891,51.234c-7.062-2.594-21.812-10.203-48.266-32.375   c14.844-5.422,28.859-12.562,41.844-21.141C335.656,436.578,335.828,437.328,336.016,438.094z M391.062,196.047   c9.453,22.328,14.234,46.078,14.234,70.562s-4.781,48.234-14.234,70.562c-9.125,21.578-22.203,40.984-38.859,57.641   s-36.047,29.719-57.641,38.844c-22.328,9.453-46.078,14.25-70.547,14.25c-24.5,0-48.234-4.797-70.562-14.25   c-21.594-9.125-40.984-22.188-57.641-38.844s-29.734-36.062-38.859-57.641c-9.453-22.328-14.234-46.078-14.234-70.562   s4.781-48.234,14.234-70.562c9.125-21.578,22.203-40.984,38.859-57.641s36.047-29.719,57.641-38.844   c22.328-9.453,46.062-14.25,70.562-14.25c24.469,0,48.219,4.797,70.547,14.25c18.328,7.734,35.047,18.344,49.875,31.531   l-30.328,30.344c-24.219-20.781-55.688-33.328-90.094-33.328c-76.5,0-138.516,62.016-138.516,138.5s62.016,138.5,138.516,138.5   c76.484,0,138.5-62.016,138.5-138.5c0-34.406-12.562-65.891-33.328-90.109l30.328-30.312   C372.719,161,383.312,177.734,391.062,196.047z M277.328,266.609c0,29.391-23.922,53.328-53.312,53.328   c-29.406,0-53.328-23.938-53.328-53.328s23.922-53.328,53.328-53.328c10.844,0,20.938,3.281,29.375,8.859l-36.922,36.922l0,0   c-1.938,1.938-3.125,4.594-3.125,7.547c0,5.891,4.766,10.672,10.672,10.672c2.938,0,5.609-1.203,7.531-3.125l0,0l36.922-36.938   C274.062,245.656,277.328,255.75,277.328,266.609z M268.719,206.812c-12.469-9.328-27.938-14.844-44.703-14.844   c-41.234,0-74.656,33.406-74.656,74.641s33.422,74.641,74.656,74.641c41.219,0,74.641-33.406,74.641-74.641   c0-16.766-5.531-32.234-14.859-44.703l30.266-30.266c17.547,21.016,27.109,47.25,27.109,74.969   c0,31.297-12.188,60.734-34.312,82.859s-51.547,34.312-82.844,34.312c-31.312,0-60.734-12.188-82.859-34.312   c-22.141-22.125-34.328-51.562-34.328-82.859s12.188-60.734,34.328-82.859c22.125-22.125,51.547-34.312,82.859-34.312   c27.703,0,53.953,9.562,74.969,27.125L268.719,206.812z"/></g></svg>