<?xml version="1.0" encoding="UTF-8" standalone="no"?>
<svg
   xmlns:dc="http://purl.org/dc/elements/1.1/"
   xmlns:cc="http://creativecommons.org/ns#"
   xmlns:rdf="http://www.w3.org/1999/02/22-rdf-syntax-ns#"
   xmlns:svg="http://www.w3.org/2000/svg"
   xmlns="http://www.w3.org/2000/svg"
   xmlns:sodipodi="http://sodipodi.sourceforge.net/DTD/sodipodi-0.dtd"
   xmlns:inkscape="http://www.inkscape.org/namespaces/inkscape"
   id="svg2211"
   width="182"
   height="44"
   version="1.1"
   inkscape:version="0.47 r22583"
   sodipodi:docname="Barack_Obama_signature[1].svg">
  <metadata
     id="metadata13">
    <rdf:RDF>
      <cc:Work
         rdf:about="">
        <dc:format>image/svg+xml</dc:format>
        <dc:type
           rdf:resource="http://purl.org/dc/dcmitype/StillImage" />
        <dc:title></dc:title>
      </cc:Work>
    </rdf:RDF>
  </metadata>
  <defs
     id="defs11">
    <inkscape:perspective
       sodipodi:type="inkscape:persp3d"
       inkscape:vp_x="0 : 22 : 1"
       inkscape:vp_y="0 : 1000 : 0"
       inkscape:vp_z="182 : 22 : 1"
       inkscape:persp3d-origin="91 : 14.666667 : 1"
       id="perspective15" />
  </defs>
  <sodipodi:namedview
     pagecolor="#ffffff"
     bordercolor="#666666"
     borderopacity="1"
     objecttolerance="10"
     gridtolerance="10"
     guidetolerance="10"
     inkscape:pageopacity="0"
     inkscape:pageshadow="2"
     inkscape:window-width="886"
     inkscape:window-height="605"
     id="namedview9"
     showgrid="false"
     inkscape:zoom="4.1960183"
     inkscape:cx="57.873235"
     inkscape:cy="21.157407"
     inkscape:window-x="26"
     inkscape:window-y="119"
     inkscape:window-maximized="0"
     inkscape:current-layer="svg2211" />
  <path
     style="fill:none;fill-opacity:0.75000000000000000;fill-rule:evenodd;stroke:rgb(0, 0, 0);stroke-width:1.39999999999999990;stroke-linecap:round;stroke-linejoin:round;stroke-opacity:1;stroke-miterlimit:4;stroke-dasharray:none"
     d="M 24.776081,42.494911 C 11.290676,41.066828 0.95766702,36.020161 1.1577608,26.86514 C 1.622673,11.592479 16.772821,3.6020224 28.133588,3.2468193 C 33.574985,3.0932043 37.935855,5.6331159 38.321883,9.0356234 C 39.192007,16.705029 19.103053,24.665394 19.103053,24.665394 C 19.103053,24.665394 36.961514,18.095102 43.763359,26.86514 C 46.547914,30.455439 31.954198,37.516539 31.954198,37.516539 C 31.954198,37.516539 23.167218,40.872528 24.312977,37.284987 C 26.078562,31.756679 41.10299,27.183575 42.721374,26.980916 C 45.890571,26.584059 49.816762,26.572526 50.709924,27.096692 C 52.046532,27.881102 49.031171,31.235688 49.783715,31.959288 C 50.536259,32.682889 53.604326,29.412214 53.720102,29.991094 C 53.835878,30.569975 53.083333,32.625 54.298982,33.001272 C 55.514631,33.377544 56.614504,31.901399 58.582697,31.496183 C 60.550891,31.090967 60.406171,31.062023 62.171756,31.380407 C 63.937341,31.698791 64.284669,32.017176 65.645038,32.76972 C 67.005407,33.522264 66.513359,34.99841 67.613232,34.390585 C 68.713105,33.782761 69.031488,30.222646 70.044529,30.338422 C 71.057569,30.454198 70.073473,35.72201 71.665394,34.85369 C 73.257315,33.98537 76.412214,26.86514 76.412214,26.86514 C 76.412214,26.86514 75.584515,30.909972 76.412214,30.801527 C 79.540974,30.391596 84.51654,28.225508 90.884224,27.44402 C 97.251908,26.662532 99.548367,27.087063 101.88295,27.675573 C 103.80326,28.159651 104.5458,29.991094 104.5458,29.991094"
     id="path2220" />
  <path
     style="fill: none; fill-opacity: 0.75; fill-rule: evenodd; stroke: rgb(0, 0, 0); stroke-width: 1.4; stroke-linecap: butt; stroke-linejoin: miter; stroke-opacity: 1; stroke-miterlimit: 4; stroke-dasharray: none;"
     d="M 113.69212,15.750636 C 113.69212,15.750636 112.59223,12.97201 110.10305,13.666667 C 104.27298,15.293664 93.885182,21.347458 93.66285,29.296437 C 93.203965,45.58701 114.74859,40.436462 116.35496,40.295165 C 129.95442,39.098952 133.73907,30.339871 133.72137,25.823155 C 133.66484,11.515581 114.64727,15.519084 112.65013,15.750636 C 104.75019,16.666573 102.17069,17.323546 102.17069,17.323546"
     id="path2225" />
  <path
     style="fill:none;fill-opacity:0.75000000000000000;fill-rule:evenodd;stroke:rgb(0, 0, 0);stroke-width:1.39999999999999990;stroke-linecap:round;stroke-linejoin:miter;stroke-opacity:1;stroke-miterlimit:4;stroke-dasharray:none"
     d="M 119.71247,1.0470738 C 117.17369,14.962417 114.58615,28.880628 117.16539,42.494911"
     id="path2228" />
  <path
     style="fill: none; fill-opacity: 0.75; fill-rule: evenodd; stroke: rgb(0, 0, 0); stroke-width: 1.4; stroke-linecap: butt; stroke-linejoin: miter; stroke-opacity: 1; stroke-miterlimit: 4; stroke-dasharray: none;"
     d="M 133.6056,27.791349 C 126.98268,27.381298 121.0134,28.169601 116.23919,31.148855"
     id="path2230" />
  <path
     style="fill:none;fill-opacity:0.75000000000000000;fill-rule:evenodd;stroke:rgb(0, 0, 0);stroke-width:1.39999999999999990;stroke-linecap:round;stroke-linejoin:miter;stroke-opacity:1;stroke-miterlimit:4;stroke-dasharray:none"
     d="M 131.52163,32.76972 C 131.52163,32.76972 135.46693,32.636988 139.85751,31.843511 C 142.25986,31.409351 144.86483,30.106871 147.73028,29.991095 C 150.59574,29.875319 149.46692,31.438295 151.31934,31.380407 C 155.95138,31.235655 159.30788,31.090967 166.25445,30.685751 C 173.20101,30.280535 176.00739,27.921622 179.1056,29.759542 C 180.8133,30.772583 180.49491,32.885496 180.49491,32.885496"
     id="path2234" />
  <path
     style="fill: none; fill-opacity: 0.75; fill-rule: evenodd; stroke: rgb(0, 0, 0); stroke-width: 1.4; stroke-linecap: butt; stroke-linejoin: miter; stroke-opacity: 1; stroke-miterlimit: 4; stroke-dasharray: none;"
     d="M 153.51909,31.033079 C 153.51909,31.033079 155.78963,28.285299 152.82443,27.675572 C 149.45556,26.982839 149.11959,30.10687 149.11959,30.10687"
     id="path2237" />
</svg>
